<?xml version="1.0" encoding="UTF-8"?>
<svg width="20px" height="20px" viewBox="0 0 20 20" version="1.1" xmlns="http://www.w3.org/2000/svg" xmlns:xlink="http://www.w3.org/1999/xlink">
    <title>icon-phone</title>
    <g id="icon-phone" stroke="none" stroke-width="1" fill="none" fill-rule="evenodd">
        <path d="M17.95,19 C15.8666667,19 13.8083333,18.5458333 11.775,17.6375 C9.74166667,16.7291667 7.89166667,15.4416667 6.225,13.775 C4.55833333,12.1083333 3.27083333,10.2583333 2.3625,8.225 C1.45416667,6.19166667 1,4.13333333 1,2.05 C1,1.75 1.1,1.5 1.3,1.3 C1.5,1.1 1.75,1 2.05,1 L6.1,1 C6.33333333,1 6.54166667,1.07916667 6.725,1.2375 C6.90833333,1.39583333 7.01666667,1.58333333 7.05,1.8 L7.7,5.3 C7.73333333,5.56666667 7.725,5.79166667 7.675,5.975 C7.625,6.15833333 7.53333333,6.31666667 7.4,6.45 L4.975,8.9 C5.30833333,9.51666667 5.70416667,10.1125 6.1625,10.6875 C6.62083333,11.2625 7.125,11.8166667 7.675,12.35 C8.19166667,12.8666667 8.73333333,13.3458333 9.3,13.7875 C9.86666667,14.2291667 10.4666667,14.6333333 11.1,15 L13.45,12.65 C13.6,12.5 13.7958333,12.3875 14.0375,12.3125 C14.2791667,12.2375 14.5166667,12.2166667 14.75,12.25 L18.2,12.95 C18.4333333,13.0166667 18.625,13.1375 18.775,13.3125 C18.925,13.4875 19,13.6833333 19,13.9 L19,17.95 C19,18.25 18.9,18.5 18.7,18.7 C18.5,18.9 18.25,19 17.95,19 Z M4.025,7 L5.675,5.35 L5.25,3 L3.025,3 C3.10833333,3.68333333 3.225,4.35833333 3.375,5.025 C3.525,5.69166667 3.74166667,6.35 4.025,7 Z M12.975,15.95 C13.625,16.2333333 14.2875,16.4583333 14.9625,16.625 C15.6375,16.7916667 16.3166667,16.9 17,16.95 L17,14.75 L14.65,14.275 L12.975,15.95 Z" fill="#1C1C1E" fill-rule="nonzero"></path>
    </g>
</svg>