<?xml version="1.0" encoding="UTF-8"?>
<svg width="48px" height="48px" viewBox="0 0 48 48" version="1.1" xmlns="http://www.w3.org/2000/svg" xmlns:xlink="http://www.w3.org/1999/xlink">
    <title>icon-appointment</title>
    <g id="icon-appointment" stroke="none" stroke-width="1" fill="none" fill-rule="evenodd">
        <path d="M30,22 C34.4,22 38,25.6 38,30 C38,34.4 34.4,38 30,38 C25.6,38 22,34.4 22,30 C22,25.6 25.6,22 30,22 Z M30,24 C26.7,24 24,26.7 24,30 C24,33.3 26.7,36 30,36 C33.3,36 36,33.3 36,30 C36,26.7 33.3,24 30,24 Z M20,10 L20,12 L28,12 L28,10 L30,10 L30,12 L34,12 C35.1,12 36,12.9 36,14 L36,20 L34,20 L34,14 L30,14 L30,16 L28,16 L28,14 L20,14 L20,16 L18,16 L18,14 L14,14 L14,34 L20,34 L20,36 L14,36 C12.9,36 12,35.1 12,34 L12,14 C12,12.9 12.9,12 14,12 L18,12 L18,10 L20,10 Z M31,26 L31,29 L34,29 L34,31 L31,31 L31,34 L29,34 L29,31 L26,31 L26,29 L29,29 L29,26 L31,26 Z" fill="#FFFFFF" fill-rule="nonzero"></path>
    </g>
</svg>