<?xml version="1.0" encoding="UTF-8"?>
<svg width="20px" height="20px" viewBox="0 0 20 20" version="1.1" xmlns="http://www.w3.org/2000/svg" xmlns:xlink="http://www.w3.org/1999/xlink">
    <title>icon-home</title>
    <g id="icon-home" stroke="none" stroke-width="1" fill="none" fill-rule="evenodd">
        <path d="M3.25,17.3627648 L6.625,17.3627648 L6.625,10.9510591 L13.375,10.9510591 L13.375,17.3627648 L16.75,17.3627648 L16.75,7.74520623 L10,2.93642696 L3.25,7.74520623 L3.25,17.3627648 Z M1,18.5382441 L1,7.64551099 C1,7.03604108 1.30032634,6.4626326 1.8095449,6.09985932 L9.40477245,0.688930019 C9.7583695,0.437023327 10.2416305,0.437023327 10.5952276,0.688930019 L18.1904551,6.09985932 C18.6996737,6.4626326 19,7.03604108 19,7.64551099 L19,18.5382441 C19,19.0694072 18.5522847,19.5 18,19.5 L12.125,19.5 C11.5727153,19.5 11.125,19.0694072 11.125,18.5382441 L11.125,13.0882943 L8.875,13.0882943 L8.875,18.5382441 C8.875,19.0694072 8.42728475,19.5 7.875,19.5 L2,19.5 C1.44771525,19.5 1,19.0694072 1,18.5382441 Z" fill="#1C1C1E" fill-rule="nonzero"></path>
    </g>
</svg>